<svg xmlns="http://www.w3.org/2000/svg" width="244.273" height="178.406" viewBox="0 0 244.273 178.406"><path fill="#FFF" d="M69.846 104.62c0 6.056-4.91 10.964-10.964 10.964H19.82c-6.055 0-10.963-4.908-10.963-10.963V91.89c0-6.055 4.91-10.964 10.963-10.964h39.062c6.055 0 10.964 4.91 10.964 10.964v12.733z"/><path fill="#30302F" d="M49.766 90.692c-4.012 0-7.188 3.26-7.188 7.188 0 4.012 3.26 5.266 7.188 5.266 4.013 0 7.188-1.337 7.188-5.266.085-4.01-3.175-7.188-7.188-7.188zM25.443 90.692c-4.012 0-7.188 3.26-7.188 7.188 0 4.012 3.26 5.266 7.188 5.266 4.012 0 7.188-1.337 7.188-5.266 0-4.01-3.26-7.188-7.187-7.188z"/><path fill="#FFF" d="M138.62 74.56c.083.25.167.418.25.668 1.84 5.6-1.254 11.702-6.854 13.54-5.016 1.673-10.28-.584-12.705-5.098l-10.53 4.932v29.673c1.336 1.338 2.506 2.842 3.594 4.43 8.274 2.76 18.305 4.264 28.92 4.264 10.114 0 19.727-1.338 27.835-3.93V99.22c0-6.604 1.754-12.873 4.764-18.306v-3.678c0-6.27-1.756-12.12-4.848-17.135L138.62 74.56zm14.96-.92c4.014 0 7.19 3.26 7.19 7.188 0 4.013-3.26 5.266-7.19 5.266-4.01 0-7.187-1.337-7.187-5.266-.084-4.012 3.176-7.188 7.188-7.188zm-26.997 26.497c.418-1.087 1.42-1.84 2.592-1.755 0 0 5.85.5 12.203.5 6.27 0 12.287-.5 12.287-.5 1.422 0 2.675 1.086 2.675 2.59 0 1.17-.752 2.258-1.84 2.592 0 0-6.185 2.09-13.206 2.09-7.02 0-13.123-2.09-13.123-2.09-1.337-.585-2.09-2.09-1.587-3.427zM108.78 83l9.36-4.43c.335-3.76 3.68-6.185 8.192-7.605 3.26-1.087 6.352-1.42 8.775-.334l30.928-14.543c-2.424-2.842-5.434-5.266-8.693-7.105l-15.296 1.922H140.71l-15.298-1.922c-9.863 5.6-16.634 16.216-16.634 28.336V83zM119.227 153.298c7.02 1.086 14.88 1.338 22.15 1.338 9.278 0 19.476-.335 27.834-2.425v-9.36c-7.604 2.006-16.883 3.01-27.833 3.01-8.275 0-15.715-.586-22.15-1.756v9.195zM169.128 172.105c-8.024 1.422-17.47 1.422-27.25 1.422H140.376c-7.69 0-14.713 0-21.148-.836v8.693h49.9v-9.278zM141.377 131.9c-9.027 0-17.72-1.086-25.41-3.01 1.42 3.094 2.34 6.438 2.842 9.947 6.352 1.254 13.874 1.923 22.483 1.923 11.117 0 20.396-1.087 27.835-3.177v-9.36c-8.19 2.423-17.803 3.677-27.75 3.677z"/><path fill="#30302F" d="M128.17 103.48s6.103 2.09 13.123 2.09 13.207-2.09 13.207-2.09c1.087-.334 1.84-1.42 1.84-2.59 0-1.422-1.254-2.592-2.676-2.592 0 0-6.018.502-12.287.502s-12.203-.502-12.203-.502c-1.17 0-2.174.668-2.592 1.755-.5 1.42.25 2.926 1.588 3.427zM153.58 86.094c4.014 0 7.19-1.337 7.19-5.266 0-4.012-3.26-7.188-7.19-7.188-4.01 0-7.187 3.26-7.187 7.188-.084 3.93 3.176 5.266 7.188 5.266z"/><path fill="none" d="M106.27 87.014"/><path fill="#FFF" d="M119.227 167.675c6.102.836 13.123.836 21.147.836h1.504c9.613 0 19.477 0 27.333-1.504v-9.612c-8.608 2.006-18.64 2.34-27.833 2.34-7.522 0-15.13-.25-22.15-1.254v9.195zM95.823 137.834c-4.514 0-8.108 3.68-8.108 8.108s3.678 8.107 8.108 8.107 8.107-3.68 8.107-8.108-3.678-8.108-8.107-8.108zm0 4.43c-2.006 0-3.678 1.673-3.678 3.68 0 .5-.418.918-.92.918-.5 0-.92-.417-.92-.92 0-3.092 2.508-5.6 5.602-5.6.5 0 .92.418.92.92 0 .5-.502 1.003-1.004 1.003zM67.57 137.834c-4.514 0-8.108 3.68-8.108 8.108s3.678 8.107 8.108 8.107 8.108-3.68 8.108-8.108-3.678-8.108-8.108-8.108zm0 4.43c-2.006 0-3.678 1.673-3.678 3.68 0 .5-.418.918-.92.918s-.918-.417-.918-.92c0-3.092 2.507-5.6 5.6-5.6.502 0 .92.418.92.92 0 .5-.502 1.003-1.004 1.003z"/><path fill="#FFF" d="M114.21 144.187c0-17.97-14.626-32.516-32.514-32.516-17.972 0-32.516 14.63-32.516 32.517v37.196h65.115v-37.196h-.084zm-18.387 14.127c-6.353 0-11.535-4.765-12.204-10.867-1.17-.5-2.592-.5-3.762 0-.67 6.103-5.935 10.867-12.204 10.867-6.77 0-12.287-5.518-12.287-12.287 0-6.77 5.517-12.288 12.287-12.288 5.768 0 10.7 4.012 11.953 9.444 1.42-.334 2.842-.334 4.263 0 1.337-5.433 6.186-9.445 11.953-9.445 6.77 0 12.287 5.516 12.287 12.287 0 6.77-5.517 12.287-12.287 12.287zM206.743 66.703c-17.972 0-32.516 14.627-32.516 32.516v23.737l.585.585c6.854 6.27 19.393 7.104 31.93 7.104 12.538 0 25.077-.836 31.93-7.104l.587-.5v5.348c-8.11 5.6-20.313 6.437-32.517 6.437-12.204 0-24.49-.836-32.516-6.52V181.3h9.53v-36.444h45.136V181.3h5.935c4.347 0 4.514-3.344 4.514-4.013v-78.07c-.084-17.887-14.63-32.514-32.6-32.514zm0 52.408c-16.05 0-29.005-2.172-29.005-18.137 0-15.966 13.04-29.005 29.005-29.005s29.004 13.04 29.004 29.005-12.955 18.138-29.004 18.138z"/><path fill="#30302F" d="M206.743 71.968c-16.05 0-29.005 13.04-29.005 29.005s13.04 18.138 29.005 18.138 29.004-2.172 29.004-18.137c0-15.966-12.955-29.005-29.004-29.005zm0 7.272c-12.037 0-21.732 9.78-21.732 21.733 0 .67-.585 1.253-1.253 1.253-.67 0-1.254-.584-1.254-1.253 0-13.374 10.866-24.24 24.24-24.24.668 0 1.254.585 1.254 1.254 0 .668-.586 1.253-1.254 1.253zm4.345.418c-.752 0-1.337-.585-1.337-1.337 0-.75.586-1.336 1.338-1.336.753 0 1.338.585 1.338 1.337 0 .753-.585 1.338-1.338 1.338z"/><path fill="#FFF" d="M206.743 76.733c-13.374 0-24.24 10.866-24.24 24.24 0 .67.585 1.253 1.254 1.253.668 0 1.254-.584 1.254-1.253 0-12.036 9.78-21.733 21.733-21.733.668 0 1.254-.585 1.254-1.253 0-.67-.586-1.254-1.254-1.254z"/><circle fill="#FFF" cx="211.088" cy="78.321" r="1.337"/><path fill="#30302F" d="M67.57 140.342c-3.093 0-5.6 2.508-5.6 5.6 0 .503.418.92.92.92s.918-.417.918-.92c0-2.005 1.672-3.677 3.678-3.677.5 0 .92-.418.92-.92s-.334-1.003-.836-1.003zM95.823 140.342c-3.093 0-5.6 2.508-5.6 5.6 0 .503.417.92.92.92.5 0 .918-.417.918-.92 0-2.005 1.673-3.677 3.68-3.677.5 0 .92-.418.92-.92s-.335-1.003-.837-1.003z"/><path fill="#30302F" d="M108.11 145.943c0-6.77-5.517-12.287-12.287-12.287-5.768 0-10.7 4.012-11.953 9.445-1.42-.334-2.842-.334-4.263 0-1.337-5.433-6.186-9.444-11.953-9.444-6.77 0-12.287 5.517-12.287 12.287s5.517 12.287 12.287 12.287c6.27 0 11.535-4.765 12.204-10.866 1.17-.502 2.59-.502 3.76 0 .67 6.102 5.936 10.866 12.205 10.866 6.77.084 12.287-5.434 12.287-12.287zm-40.54 8.107c-4.514 0-8.108-3.678-8.108-8.107s3.678-8.108 8.108-8.108 8.108 3.68 8.108 8.108S72 154.05 67.57 154.05zm28.253 0c-4.514 0-8.108-3.678-8.108-8.107s3.678-8.108 8.108-8.108 8.107 3.68 8.107 8.108-3.678 8.107-8.107 8.107z"/><path fill="#FFF" d="M188.688 149.955V181.3h35.105v-31.346h-35.105zm7.355 9.53c-1.338 0-2.508-1.088-2.508-2.51 0-1.337 1.087-2.507 2.508-2.507s2.508 1.087 2.508 2.508-1.17 2.508-2.507 2.508zm6.52 0c-1.338 0-2.508-1.088-2.508-2.51 0-1.337 1.087-2.507 2.508-2.507s2.508 1.087 2.508 2.508-1.086 2.508-2.507 2.508z"/><circle fill="#30302F" cx="196.043" cy="156.976" r="2.508"/><circle fill="#30302F" cx="202.563" cy="156.976" r="2.508"/><circle fill="#30302F" cx="26.864" cy="33.686" r="5.768"/><circle fill="#30302F" cx="89.219" cy="10.615" r="10.615"/><circle fill="#30302F" cx="77.517" cy="61.687" r="5.015"/><circle fill="#30302F" cx="206.743" cy="21.482" r="4.848"/><path fill="#30302F" d="M206.743 61.687c-11.117 0-21.064 4.848-27.918 12.455-.92-10.616-6.186-19.894-14.043-26.163 1.338-.42 2.34-1.756 2.34-3.26V29.84c0-1.67-1.253-2.424-2.674-1.67l-9.863 4.847c-1.756.835-3.762 2.507-.92-.67-1.84-5.098-6.604-8.692-12.287-8.692-5.6 0-10.448 3.594-12.287 8.526 2.76 3.01 1.34 1.923-.333 1.004v.083l-10.45-5.1c-1.503-.75-2.673 0-2.673 1.672v14.878c0 1.42 1.002 2.758 2.34 3.26-8.61 6.854-14.126 17.47-14.126 29.34v36.526c-3.93-2.842-8.442-5.016-13.29-6.186-4.682 2.76-1.923-.334-1.923-.334h.25c-.083 0-.166 0-.25-.084 2.006-3.176 6.687-6.27 6.687-6.27-11.45-1.922-14.376 4.18-14.962 5.685-1.755.084-3.51.25-5.182.5-2.257.754-7.105 2.343 0-1.754v-9.527c0-20.73-16.884-37.53-37.53-37.53-20.73 0-37.615 16.883-37.615 37.53v81.246c-.083.835-.167 4.18 2.006 6.603 1.002 1.17 3.008 2.59 6.435 2.59h35.608v.085H234.745c7.02 0 9.528-5.434 9.528-9.028V99.218c0-20.646-16.8-37.53-37.53-37.53zm32.515 115.6c0 .67-.252 4.014-4.514 4.014h-5.936v-36.443H183.67V181.3h-9.528v-52.994c8.108 5.6 20.312 6.52 32.516 6.52s24.49-.836 32.516-6.436v-5.35l-.586.5c-6.854 6.27-19.392 7.105-31.93 7.105s-25.076-.836-31.93-7.104l-.586-.584V99.218c0-17.972 14.628-32.516 32.516-32.516s32.516 14.627 32.516 32.516v78.07h.084zm-50.57 4.013v-31.346h35.105V181.3h-35.105zm-79.91.083H49.1v-37.196c0-17.97 14.627-32.516 32.515-32.516 17.972 0 32.516 14.63 32.516 32.517v37.196h-5.35zM49.85 111.42H25.108c-6.854 0-12.455-5.6-12.455-12.454 0-6.854 5.6-12.454 12.455-12.454H49.85c6.854 0 12.454 5.6 12.454 12.454 0 6.855-5.6 12.455-12.454 12.455zm75.563-62.438l15.297 1.922h1.338l15.295-1.922c3.26 1.84 6.27 4.263 8.693 7.105L135.108 70.63c-2.424-1.002-5.516-.75-8.775.335-4.43 1.42-7.857 3.845-8.192 7.606L108.78 83v-5.683c0-12.12 6.77-22.734 16.633-28.335zm48.48 32.014c-3.01 5.434-4.765 11.62-4.765 18.306v23.74c-8.024 2.506-17.637 3.927-27.835 3.927-10.615 0-20.646-1.505-28.92-4.264-1.088-1.59-2.34-3.01-3.595-4.43V88.6l10.532-4.932c2.424 4.43 7.773 6.687 12.705 5.1 5.6-1.84 8.692-7.858 6.854-13.542-.085-.25-.168-.418-.25-.668l30.425-14.293c3.092 5.015 4.848 10.866 4.848 17.135v3.594zm-32.516 59.764c-8.61 0-16.133-.67-22.484-1.923-.502-3.51-1.505-6.854-2.842-9.946 7.69 1.924 16.384 3.01 25.41 3.01 10.03 0 19.56-1.254 27.835-3.678v9.36c-7.522 2.09-16.8 3.178-27.918 3.178zm0 5.015c10.866 0 20.145-1.002 27.834-3.01v9.363c-8.357 2.09-18.555 2.424-27.833 2.424-7.27 0-15.045-.168-22.15-1.338v-9.11-.167c6.436 1.254 13.792 1.838 22.15 1.838zm0 13.876c9.11 0 19.142-.334 27.834-2.34v9.613c-7.855 1.504-17.72 1.504-27.33 1.504h-1.505c-8.025 0-14.963 0-21.148-.836v-9.193c7.022 1.087 14.628 1.254 22.15 1.254zM106.27 87.015zm12.957 85.677c6.353.837 13.457.837 21.147.837h1.504c9.864 0 19.31 0 27.25-1.422v9.278h-49.9v-8.692z"/></svg>